<?xml version="1.0" encoding="utf-8"?>
<!-- Generator: Adobe Illustrator 25.2.0, SVG Export Plug-In . SVG Version: 6.00 Build 0)  -->
<svg version="1.1" id="レイヤー_1" xmlns="http://www.w3.org/2000/svg" xmlns:xlink="http://www.w3.org/1999/xlink" x="0px"
	 y="0px" viewBox="0 0 512 512" style="enable-background:new 0 0 512 512;" xml:space="preserve">
<style type="text/css">
	.st0{fill:#FFFFFF;}
</style>
<g>
	<path class="st0" d="M510.3,150.5c-1.2-27.2-5.6-45.9-11.9-62.1c-6.5-16.8-15.3-31.1-29.5-45.3s-28.5-23-45.3-29.5
		c-16.3-6.3-34.9-10.7-62.1-11.9C334.2,0.3,325.5,0,256,0s-78.2,0.3-105.5,1.5c-27.2,1.2-45.8,5.6-62.1,11.9
		C71.6,20,57.3,28.7,43.1,43c-14.2,14.2-23,28.5-29.5,45.3C7.3,104.6,3,123.2,1.7,150.5c-1.2,27.3-1.5,36-1.5,105.5
		s0.3,78.2,1.5,105.5c1.2,27.2,5.6,45.9,11.9,62.1c6.5,16.8,15.3,31.1,29.5,45.3c14.2,14.2,28.5,23,45.3,29.5
		c16.3,6.3,34.9,10.7,62.1,11.9c27.3,1.2,36,1.5,105.5,1.5s78.2-0.3,105.5-1.5c27.2-1.2,45.8-5.6,62.1-11.9
		c16.8-6.5,31.1-15.3,45.3-29.5c14.2-14.2,23-28.5,29.5-45.3c6.3-16.3,10.6-34.9,11.9-62.1c1.2-27.3,1.5-36,1.5-105.5
		S511.5,177.8,510.3,150.5z M464.2,359.4c-1.1,25-5.3,38.5-8.8,47.5c-4.6,11.9-10.2,20.5-19.1,29.4c-9,9-17.5,14.5-29.4,19.1
		c-9,3.5-22.6,7.7-47.5,8.8c-27,1.2-35.1,1.5-103.4,1.5s-76.4-0.3-103.4-1.5c-24.9-1.1-38.5-5.3-47.5-8.8
		c-11.9-4.6-20.5-10.2-29.4-19.1c-9-9-14.5-17.5-19.1-29.4c-3.5-9-7.7-22.6-8.8-47.5c-1.2-27-1.5-35.1-1.5-103.4
		c0-68.4,0.3-76.4,1.5-103.4c1.1-25,5.3-38.5,8.8-47.5c4.6-12,10.2-20.5,19.1-29.4c9-9,17.5-14.5,29.4-19.1c9-3.5,22.6-7.7,47.5-8.8
		c27-1.2,35.1-1.5,103.4-1.5s76.4,0.3,103.4,1.5c24.9,1.1,38.5,5.3,47.5,8.8c11.9,4.6,20.5,10.2,29.4,19.1c9,9,14.5,17.5,19.1,29.4
		c3.5,9,7.7,22.6,8.8,47.5c1.2,27,1.5,35.1,1.5,103.4C465.7,324.4,465.5,332.5,464.2,359.4z"/>
	<path class="st0" d="M256,124.5c-72.6,0-131.4,58.9-131.4,131.5S183.4,387.5,256,387.5S387.4,328.6,387.4,256
		S328.6,124.5,256,124.5z M256,341.3c-47.1,0-85.3-38.2-85.3-85.3s38.2-85.3,85.3-85.3s85.3,38.2,85.3,85.3S303.1,341.3,256,341.3z"
		/>
	<path class="st0" d="M392.6,88.6c-17,0-30.7,13.8-30.7,30.7c0,17,13.7,30.7,30.7,30.7s30.7-13.8,30.7-30.7
		C423.3,102.4,409.5,88.6,392.6,88.6z"/>
</g>
</svg>
